<svg xmlns="http://www.w3.org/2000/svg" viewBox="0 0 384.62 216.2"><defs><style>.cls-1{fill:#4f82c2;}</style></defs><g id="Layer_2" data-name="Layer 2"><g id="Layer_1-2" data-name="Layer 1"><path class="cls-1" d="M171.06,44.57l50.4-.34c24.26,4.85,22.28,44.46-3.87,43.94-12.45.19-34.07-.53-46.53-.94Zm45.65,88.69c26.88.62,25.85,43.12-.42,42.74-12.81-.06-32.58-.48-45.4-.62V133.12S203.42,132.63,216.71,133.26ZM171,43s-75.43-1-105.9-.68L64.8,88.21H170.88c.16,11.15.31,31.08,0,42.23,0,0-87.95-.07-106.59-.42l-.42,46.21,107.19.3-.18,39.67L0,215.91.06,0H171C171,19.17,171,43,171,43Zm92.24,173a12.09,12.09,0,0,0,2.43-1c48.34-15.23,46.45-89.18-1.92-102.79-3.84-.94-3.73-3.73-.09-4.91C322.76,88.2,302.75,6.52,261.5,1.49,427.44,1.49,423.28,214.74,263.28,216Z"/></g></g></svg>