<svg xmlns="http://www.w3.org/2000/svg" viewBox="0 0 268.71 307.05"><defs><style>.cls-1{fill:#11103c;stroke:#2d2d72;stroke-miterlimit:10;stroke-width:2px;}</style></defs><g id="Layer_2" data-name="Layer 2"><g id="Layer_1-2" data-name="Layer 1"><path class="cls-1" d="M267.63,158.33c0-21.6,0-43.2,0-64.8,0-4-.39-7.65-4.29-9.85s-7.52-.91-11.13,1.22c-10.46,6.17-21,12.2-31.53,18.28-24,13.84-48,27.61-71.86,41.54-8,4.68-7.92,12,.07,16.67q22.32,13,44.73,25.86c4.89,2.82,5,5.61,0,8.5-18.49,10.72-37,21.32-55.48,32.13-3,1.77-5.34,1.42-8.12-.25-6.76-4-14.11-7.27-20.36-12-8.67-6.54-16-6-25-.15-13.08,8.57-27.08,15.73-40.58,23.66-6.83,4-6.6,11.92.23,15.88L50,258.35q21.6,12.51,43.21,25c12.52,7.23,25.09,14.38,37.61,21.61a6.57,6.57,0,0,0,7.35-.09q61.35-35.6,122.83-70.95c4.83-2.77,6.74-6.22,6.69-11.69C267.52,200.94,267.63,179.63,267.63,158.33ZM1.07,147.58c0,21.6,0,43.21,0,64.82,0,4,.36,7.66,4.23,9.88s7.53,1,11.14-1.16c10.46-6.17,21-12.22,31.53-18.3,24-13.84,48-27.6,71.89-41.54,8-4.68,7.94-12,0-16.67q-22.53-13.12-45.13-26.12c-4.26-2.46-4.42-5.17-.18-7.83,4.46-2.81,9.09-5.34,13.66-8,13.94-8.07,27.91-16.09,41.8-24.25,3.13-1.84,5.74-2,8.9.06,5.92,3.76,12,7.22,18.16,10.63,16.49,9.17,12.62,9.22,26.7,1.25,13.77-7.79,27.49-15.65,41.1-23.71,6.59-3.91,6.31-11.77-.26-15.63-1.51-.89-3-1.82-4.51-2.69C194.45,33.63,168.68,19.24,143.42,4,136.64-.06,131.85.07,125.25,4,86.11,27,46.75,49.58,7.4,72.21,3,74.77,1,78,1,83.2,1.16,104.66,1.07,126.12,1.07,147.58Z"/></g></g></svg>